<svg xmlns="http://www.w3.org/2000/svg" width="512" height="512" viewBox="0 0 512 512" fill="none">
  <!-- Background with padding -->
  <rect width="512" height="512" fill="transparent" />
  <!-- Main circle with proper iOS padding -->
  <circle cx="256" cy="256" r="220" fill="#3e8343" />

  <!-- Chef hat and sparkles scaled much larger and centered -->
  <g transform="translate(256,256) scale(14) translate(-12,-12)">
    <path d="M17 21a1 1 0 0 0 1-1v-5.35c0-.457.316-.844.727-1.041a4 4 0 0 0-2.134-7.589 5 5 0 0 0-9.186 0 4 4 0 0 0-2.134 7.588c.411.198.727.585.727 1.041V20a1 1 0 0 0 1 1Z"
          stroke="white" stroke-width="1.5" stroke-linecap="round" stroke-linejoin="round" fill="none" />
    <path d="M7 17h10"
          stroke="white" stroke-width="1.5" stroke-linecap="round" stroke-linejoin="round" />

    <!-- Large sparkle -->
    <path d="M9.5 8c.6 1.8 1.3 2.3 3 2.8-1.8.6-2.4 1.1-3 2.8-.6-1.8-1.3-2.3-3-2.8 1.8-.6 2.4-1.1 3-2.8Z"
          fill="white" />

    <!-- Medium sparkle -->
    <path d="M13.5 7l.5 1.2 1.1.5-1.1.5-.5 1.2-.5-1.2-1.1-.5 1.1-.5.5-1.2Z"
          fill="white" />

    <!-- Small sparkle -->
    <path d="M14 11l.4.9.9.4-.9.4-.4.9-.4-.9-.9-.4.9-.4.4-.9Z"
          fill="white" />
  </g>
</svg>