<svg xmlns="http://www.w3.org/2000/svg" width="128" height="128" viewBox="0 0 24 24" fill="none">
  <path d="M17 21a1 1 0 0 0 1-1v-5.35c0-.457.316-.844.727-1.041a4 4 0 0 0-2.134-7.589 5 5 0 0 0-9.186 0 4 4 0 0 0-2.134 7.588c.411.198.727.585.727 1.041V20a1 1 0 0 0 1 1Z" 
        stroke="oklch(0.35 0.15 145)" stroke-width="2" stroke-linecap="round" stroke-linejoin="round" fill="none" />
  <path d="M7 17h10" 
        stroke="oklch(0.35 0.15 145)" stroke-width="2" stroke-linecap="round" stroke-linejoin="round" />

  <path d="M9.5 8c.5 1.6 1.1 2.1 2.7 2.6-1.6.5-2.2 1-2.7 2.6-.5-1.6-1.1-2.1-2.7-2.6 1.6-.5 2.2-1 2.7-2.6Z" 
        fill="oklch(0.35 0.15 145)" />

  <path d="M13.5 7l.4 1 .9.4-.9.4-.4 1-.4-1-.9-.4.9-.4.4-1Z" 
        fill="oklch(0.35 0.15 145)" />

  <path d="M14 11l.35.8.8.35-.8.35-.35.8-.35-.8-.8-.35.8-.35.35-.8Z" 
        fill="oklch(0.35 0.15 145)" />
</svg>